<svg width="504" height="441" viewBox="0 0 504 441" fill="none" xmlns="http://www.w3.org/2000/svg">
<path d="M134.302 90.1818C157.309 95.029 179.626 78.9656 184.148 54.296C188.67 29.634 173.678 5.71009 150.671 0.86291C127.665 -3.98427 105.347 12.0791 100.825 36.7488C96.3034 61.4108 111.296 85.3347 134.302 90.1818Z" fill="#FEBC0F"/>
<path d="M439.633 197.215C399.824 181.73 411.317 137.086 432.669 126.045C448.144 118.04 476.184 98.7499 485 39.7468C485 39.7468 432.811 35.1659 432.896 34.717C422.54 88.5229 388.587 93.5679 368.938 91.7112C313.385 86.4456 293.466 58.6561 296.029 11.4855C296.029 11.4855 249.54 11.9497 250.293 13.0455C237.657 95.6986 281.477 120.254 314.187 128.434C338.642 134.552 339.131 163.924 325.012 173.071C311.248 181.989 283.819 184.34 272.057 149.748C272.114 149.733 272.149 149.725 272.149 149.733C271.908 149.063 271.659 148.416 271.411 147.762C271.333 147.518 271.255 147.298 271.177 147.047C271.177 147.047 271.155 147.062 271.148 147.062C246.381 82.8083 184.808 88.0207 177.504 89.2382C170.1 90.4785 127.658 102.874 101.826 91.3688C65.2898 75.0924 80.5446 27.3663 80.5446 27.3663L34.9079 29.36C29.875 47.2572 16.2812 99.6174 64.367 118.329C104.176 133.814 92.6832 178.458 71.3307 189.499C55.8558 197.504 27.8164 216.794 19 275.797C19 275.797 71.1887 280.378 71.1035 280.827C81.4603 227.021 115.413 221.976 135.069 223.833C190.622 229.099 210.541 256.888 207.978 304.059C207.978 304.059 254.467 303.595 253.714 302.499C266.35 219.846 222.53 195.29 189.82 187.11C165.365 180.992 164.876 151.62 178.995 142.473C192.759 133.555 220.188 131.204 231.95 165.796C231.893 165.811 231.858 165.819 231.858 165.811C232.099 166.481 232.348 167.128 232.596 167.782C232.674 168.026 232.752 168.246 232.83 168.498C232.83 168.498 232.852 168.482 232.859 168.482C257.626 232.736 319.199 227.524 326.503 226.306C333.907 225.066 376.349 212.67 402.181 224.175C438.717 240.452 423.463 288.178 423.463 288.178L469.099 286.184C474.132 268.287 487.726 215.927 439.64 197.215H439.633Z" fill="#FEBC0F"/>
<path d="M403.929 271.648C404.764 246.528 386.444 225.44 363.011 224.545C339.578 223.65 319.905 243.288 319.07 268.408C318.235 293.527 336.555 314.616 359.988 315.511C383.422 316.405 403.095 296.767 403.929 271.648Z" fill="#FEBC0F"/>
<path d="M255.777 377.32V363.581C255.777 363.389 255.621 363.235 255.428 363.235H209.18C208.987 363.235 208.831 363.389 208.831 363.581V377.32C208.831 377.512 208.987 377.667 209.18 377.667H223.019C223.212 377.667 223.368 377.822 223.368 378.013V421.479C223.368 421.671 223.524 421.826 223.717 421.826H240.75C240.943 421.826 241.099 421.671 241.099 421.479V378.013C241.099 377.822 241.255 377.667 241.448 377.667H255.436C255.629 377.667 255.785 377.512 255.785 377.32H255.777ZM276.978 382.409H260.724C260.531 382.409 260.375 382.563 260.375 382.755V424.673C260.375 426.848 258.6 428.611 256.409 428.611H253.913C253.72 428.611 253.564 428.765 253.564 428.95L253.43 440.145C253.43 440.314 253.541 440.462 253.705 440.491C255.332 440.808 257.122 441 259.737 441C268.74 441 277.319 436.634 277.319 424.038V382.755C277.319 382.563 277.163 382.409 276.97 382.409H276.978ZM328.173 376.206H311.92C311.727 376.206 311.571 376.361 311.571 376.553V404.591C310.509 406.774 308.592 408.463 306.111 408.463C303.132 408.463 301.573 406.841 301.573 402.969V376.546C301.573 376.354 301.417 376.199 301.223 376.199H284.97C284.777 376.199 284.621 376.354 284.621 376.546V406.833C284.621 417.32 290.081 423.094 299.723 423.094C304.477 423.094 308.726 420.771 311.563 416.9V421.878C311.563 422.069 311.719 422.224 311.913 422.224H328.166C328.359 422.224 328.515 422.069 328.515 421.878V376.546C328.515 376.354 328.359 376.199 328.166 376.199L328.173 376.206ZM390.288 375.329C385.556 375.329 380.223 377.77 377.118 381.752C376.969 381.944 376.694 381.914 376.576 381.701C374.332 377.615 370.373 375.322 364.898 375.322C360.36 375.322 356.029 377.504 353.34 381.162V376.538C353.34 376.347 353.184 376.192 352.991 376.192H336.738C336.545 376.192 336.389 376.347 336.389 376.538V421.87C336.389 422.062 336.545 422.217 336.738 422.217H352.991C353.184 422.217 353.34 422.062 353.34 421.87V393.625C354.12 391.229 355.821 389.614 358.094 389.614C360.649 389.614 361.853 391.516 361.853 394.894V421.878C361.853 422.069 362.009 422.224 362.202 422.224H378.455C378.648 422.224 378.804 422.069 378.804 421.878V393.345C379.651 391.096 381.285 389.614 383.484 389.614C386.106 389.614 387.317 391.656 387.317 394.894V421.878C387.317 422.069 387.473 422.224 387.666 422.224H403.919C404.112 422.224 404.268 422.069 404.268 421.878V391.59C404.268 381.597 399.373 375.329 390.296 375.329H390.288ZM481.945 375.476C476.367 375.476 467.252 376.295 461.778 379.112C461.622 379.193 461.555 379.37 461.607 379.532L464.935 390.137C464.994 390.329 465.195 390.417 465.38 390.344C470.031 388.426 475.728 388.146 479.888 388.146C484.85 388.146 487.049 389.835 487.049 392.726V393.979C484.427 393.839 480.809 393.699 478.402 393.699C467.408 393.699 459.906 397.785 459.906 407.276C459.906 417.645 463.887 423.19 472.11 423.19C482.25 423.19 484.657 421.406 486.833 418.102C486.967 417.895 487.279 417.888 487.413 418.094L490.146 422.217C490.213 422.313 490.317 422.372 490.436 422.372H503.651C503.844 422.372 504 422.217 504 422.025V394.201C504 383.006 497.76 375.476 481.945 375.476ZM487.056 404.901C486.603 409.496 483.699 411.656 479.977 411.656C477.162 411.656 475.26 410.034 475.26 407.696C475.26 404.901 477.526 403.19 481.611 403.19C483.877 403.19 485.511 403.19 487.056 403.279V404.901ZM432.971 375.476C431.686 375.476 430.2 375.528 428.633 375.631V361.347C428.633 361.155 428.477 361 428.284 361H411.251C411.058 361 410.902 361.155 410.902 361.347V419.252C410.902 419.827 410.879 420.757 411.072 421.007C416.517 423.928 427.296 422.829 432.971 422.829C448.786 422.829 455.025 415.299 455.025 404.105V394.215C455.025 383.021 448.786 375.491 432.971 375.491V375.476ZM438.082 393.979V405.572C438.082 408.456 435.883 410.152 430.921 410.152C430.215 410.152 429.413 410.122 428.633 410.1V388.205C429.413 388.183 430.215 388.153 430.921 388.153C435.883 388.153 438.082 389.842 438.082 392.733V393.987V393.979ZM277.193 363.235H260.442C260.249 363.235 260.093 363.389 260.093 363.581V377.291C260.093 377.482 260.249 377.637 260.442 377.637H277.193C277.386 377.637 277.542 377.482 277.542 377.291V363.581C277.542 363.389 277.386 363.235 277.193 363.235ZM46.9392 377.32V363.581C46.9392 363.389 46.7832 363.235 46.59 363.235H0.349128C0.155993 363.235 0 363.389 0 363.581V377.32C0 377.512 0.155993 377.667 0.349128 377.667H14.188C14.3811 377.667 14.5371 377.822 14.5371 378.013V421.479C14.5371 421.671 14.6931 421.826 14.8862 421.826H31.9192C32.1124 421.826 32.2684 421.671 32.2684 421.479V378.013C32.2684 377.822 32.4244 377.667 32.6175 377.667H46.6049C46.798 377.667 46.954 377.512 46.954 377.32H46.9392ZM68.1394 382.409H51.8864C51.6933 382.409 51.5373 382.563 51.5373 382.755V424.673C51.5373 426.848 49.7619 428.611 47.5706 428.611H45.0747C44.8815 428.611 44.733 428.765 44.7256 428.95L44.5918 440.145C44.5918 440.314 44.7033 440.462 44.8667 440.491C46.4935 440.808 48.2837 441 50.8984 441C59.9015 441 68.4811 436.634 68.4811 424.038V382.755C68.4811 382.563 68.3251 382.409 68.132 382.409H68.1394ZM119.335 376.206H103.082C102.889 376.206 102.733 376.361 102.733 376.553V404.591C101.671 406.774 99.7541 408.463 97.2731 408.463C94.2943 408.463 92.7344 406.841 92.7344 402.969V376.546C92.7344 376.354 92.5784 376.199 92.3853 376.199H76.1322C75.9391 376.199 75.7831 376.354 75.7831 376.546V406.833C75.7831 417.32 81.2429 423.094 90.8848 423.094C95.6388 423.094 99.8878 420.771 102.725 416.9V421.878C102.725 422.069 102.881 422.224 103.075 422.224H119.328C119.521 422.224 119.677 422.069 119.677 421.878V376.546C119.677 376.354 119.521 376.199 119.328 376.199L119.335 376.206ZM181.45 375.329C176.718 375.329 171.385 377.77 168.28 381.752C168.131 381.944 167.856 381.914 167.738 381.701C165.494 377.615 161.535 375.322 156.068 375.322C151.529 375.322 147.198 377.504 144.509 381.162V376.538C144.509 376.347 144.353 376.192 144.16 376.192H127.907C127.714 376.192 127.558 376.347 127.558 376.538V421.87C127.558 422.062 127.714 422.217 127.907 422.217H144.16C144.353 422.217 144.509 422.062 144.509 421.87V393.625C145.289 391.229 146.99 389.614 149.263 389.614C151.819 389.614 153.022 391.516 153.022 394.894V421.878C153.022 422.069 153.178 422.224 153.371 422.224H169.624C169.817 422.224 169.973 422.069 169.973 421.878V393.345C170.82 391.096 172.454 389.614 174.653 389.614C177.275 389.614 178.486 391.656 178.486 394.894V421.878C178.486 422.069 178.642 422.224 178.835 422.224H195.088C195.282 422.224 195.438 422.069 195.438 421.878V391.59C195.438 381.597 190.542 375.329 181.465 375.329H181.45ZM68.3548 363.235H51.6041C51.411 363.235 51.255 363.389 51.255 363.581V377.291C51.255 377.482 51.411 377.637 51.6041 377.637H68.3548C68.548 377.637 68.704 377.482 68.704 377.291V363.581C68.704 363.389 68.548 363.235 68.3548 363.235Z" fill="#FEBC0F"/>
</svg>
